<?xml version="1.0" encoding="utf-8"?>
<!-- Generator: Adobe Illustrator 24.2.3, SVG Export Plug-In . SVG Version: 6.00 Build 0)  -->
<svg version="1.1" id="Ebene_1" xmlns="http://www.w3.org/2000/svg" xmlns:xlink="http://www.w3.org/1999/xlink" x="0px" y="0px"
	 viewBox="0 0 1920 753" style="enable-background:new 0 0 1920 753;" xml:space="preserve">
<style type="text/css">
	.st0{clip-path:url(#SVGID_2_);fill:#0D2B56;}
</style>
<g>
	<defs>
		<rect id="SVGID_1_" width="1920" height="753"/>
	</defs>
	<clipPath id="SVGID_2_">
		<use xlink:href="#SVGID_1_"  style="overflow:visible;"/>
	</clipPath>
	<path class="st0" d="M1955,103c-79.48,12.42-158.62,26.93-238,40c-75.74,12.47-134.31,38.79-318,154
		c-349.62,219.28-309.25,231.65-439,292c-160.85,74.81-292.35,88.09-539,113c-232.37,23.47-332.24,2.56-413-32
		c-40.32-17.25-109.78-47.86-172-118c-100.58-113.39-106.92-245.18-111-330c-3.19-66.34-6.29-156.12,51-207
		c19.22-17.07,39.28-24.47,50-28C21.41-77.41,1378.41-263.73,1952-26c29.86,12.38,142.15,58.92,136,91
		C2084.38,83.88,2041.33,89.51,1955,103z"/>
</g>
</svg>
