<?xml version="1.0" encoding="utf-8"?>
<!-- Generator: Adobe Illustrator 24.2.3, SVG Export Plug-In . SVG Version: 6.00 Build 0)  -->
<svg version="1.1" id="Ebene_1" xmlns="http://www.w3.org/2000/svg" xmlns:xlink="http://www.w3.org/1999/xlink" x="0px" y="0px"
	 viewBox="0 0 797.84 222" style="enable-background:new 0 0 797.84 222;" xml:space="preserve">
<style type="text/css">
	.st0{fill:#FFFFFF;}
</style>
<g>
	<path class="st0" d="M566.08,0h-46.05v70.88c15.49-5.67,30.85-11.57,46.05-17.68V0z"/>
	<path class="st0" d="M566.08,0h-46.05v70.88c15.49-5.67,30.85-11.57,46.05-17.68V0z"/>
	<path class="st0" d="M566.08,0h-46.05v70.88c15.49-5.67,30.85-11.57,46.05-17.68V0z"/>
	<path class="st0" d="M419.42,53.08c0.28,0.13,0.56,0.27,0.84,0.4C419.98,53.34,419.7,53.21,419.42,53.08z"/>
	<path class="st0" d="M428.95,58.35c0.27,0.17,0.53,0.34,0.8,0.52C429.49,58.69,429.22,58.52,428.95,58.35z"/>
	<path class="st0" d="M430.48,59.34c0.27,0.18,0.55,0.37,0.82,0.55C431.03,59.71,430.75,59.53,430.48,59.34z"/>
	<path class="st0" d="M432.06,60.42c0.45,0.31,0.89,0.62,1.33,0.94C432.94,61.04,432.5,60.73,432.06,60.42z"/>
	<path class="st0" d="M426.85,57.05c0.26,0.15,0.51,0.31,0.77,0.46C427.37,57.36,427.11,57.21,426.85,57.05z"/>
	<path class="st0" d="M434,61.82c0.29,0.21,0.57,0.42,0.85,0.64C434.57,62.24,434.29,62.03,434,61.82z"/>
	<path class="st0" d="M425.24,56.11c0.26,0.15,0.51,0.3,0.77,0.45C425.76,56.41,425.5,56.26,425.24,56.11z"/>
	<path class="st0" d="M421.43,54.06c0.25,0.13,0.49,0.25,0.74,0.38C421.92,54.31,421.67,54.18,421.43,54.06z"/>
	<path class="st0" d="M423.15,54.96c0.26,0.14,0.52,0.28,0.78,0.42C423.66,55.23,423.4,55.09,423.15,54.96z"/>
	<path class="st0" d="M444.75,71.17c-0.91-0.93-1.84-1.84-2.79-2.73C442.91,69.33,443.85,70.24,444.75,71.17z"/>
	<path class="st0" d="M438.75,65.57c0.59,0.5,1.18,1.01,1.75,1.53C439.92,66.58,439.34,66.07,438.75,65.57z"/>
	<path class="st0" d="M447.99,74.65c0.3,0.34,0.59,0.67,0.88,1.01C448.58,75.33,448.29,74.99,447.99,74.65z"/>
	<path class="st0" d="M445.05,71.47c0.94,0.97,1.85,1.95,2.75,2.96C446.9,73.42,445.99,72.44,445.05,71.47z"/>
	<path class="st0" d="M448.98,75.79c0.6,0.71,1.19,1.42,1.77,2.15C450.17,77.21,449.58,76.49,448.98,75.79z"/>
	<path class="st0" d="M440.69,67.27c0.3,0.27,0.6,0.54,0.89,0.82C441.29,67.81,440.99,67.54,440.69,67.27z"/>
	<path class="st0" d="M450.78,77.98c0.29,0.36,0.57,0.73,0.86,1.09C451.36,78.71,451.07,78.34,450.78,77.98z"/>
	<path class="st0" d="M437.41,64.46c0.29,0.24,0.59,0.48,0.88,0.72C438,64.94,437.71,64.7,437.41,64.46z"/>
	<path class="st0" d="M435.42,62.88c0.51,0.39,1.01,0.79,1.51,1.19C436.43,63.67,435.92,63.27,435.42,62.88z"/>
	<path class="st0" d="M451.77,79.25c0.85,1.11,1.68,2.24,2.48,3.38C453.45,81.48,452.62,80.35,451.77,79.25z"/>
	<path class="st0" d="M454.37,82.81c0.8,1.15,1.57,2.33,2.31,3.52C455.94,85.14,455.17,83.96,454.37,82.81z"/>
	<path class="st0" d="M456.79,86.49c0.75,1.21,1.48,2.44,2.17,3.69C458.27,88.94,457.54,87.7,456.79,86.49z"/>
	<path class="st0" d="M332.68,59.06c0.52-0.34,1.05-0.68,1.58-1.02C333.73,58.38,333.2,58.72,332.68,59.06z"/>
	<path class="st0" d="M325.56,64.26c0.63-0.51,1.27-1.01,1.92-1.51C326.83,63.25,326.19,63.75,325.56,64.26z"/>
	<path class="st0" d="M417.51,52.19c0.23,0.1,0.47,0.21,0.7,0.32C417.98,52.4,417.74,52.3,417.51,52.19z"/>
	<path class="st0" d="M304.91,88.19c0.35-0.6,0.72-1.2,1.08-1.79C305.63,87,305.26,87.59,304.91,88.19z"/>
	<path class="st0" d="M336.62,56.61c0.87-0.51,1.75-1.01,2.64-1.49C338.37,55.6,337.5,56.1,336.62,56.61z"/>
	<path class="st0" d="M398.94,46.26c0.19,0.04,0.38,0.08,0.57,0.12C399.32,46.34,399.13,46.3,398.94,46.26z"/>
	<path class="st0" d="M401.29,46.77c0.07,0.02,0.15,0.03,0.22,0.05C401.44,46.8,401.36,46.78,401.29,46.77z"/>
	<path class="st0" d="M392.53,45.22c0.15,0.02,0.3,0.04,0.46,0.06C392.83,45.26,392.68,45.23,392.53,45.22z"/>
	<path class="st0" d="M390.13,44.95c0.15,0.01,0.3,0.03,0.45,0.04C390.43,44.98,390.28,44.96,390.13,44.95z"/>
	<path class="st0" d="M394.56,45.5c0.18,0.03,0.35,0.05,0.53,0.08C394.91,45.55,394.73,45.52,394.56,45.5z"/>
	<path class="st0" d="M403.27,47.25c0.2,0.05,0.39,0.1,0.59,0.15C403.67,47.35,403.47,47.3,403.27,47.25z"/>
	<path class="st0" d="M388,44.76c0.17,0.01,0.34,0.03,0.52,0.04C388.34,44.79,388.17,44.78,388,44.76z"/>
	<path class="st0" d="M411.7,49.84c0.2,0.07,0.39,0.15,0.59,0.22C412.09,49.99,411.89,49.91,411.7,49.84z"/>
	<path class="st0" d="M413.51,50.52c0.22,0.08,0.43,0.17,0.65,0.25C413.94,50.69,413.72,50.61,413.51,50.52z"/>
	<path class="st0" d="M415.78,51.44c0.19,0.08,0.37,0.16,0.56,0.24C416.15,51.6,415.97,51.52,415.78,51.44z"/>
	<path class="st0" d="M409.44,49.06c0.19,0.06,0.38,0.12,0.56,0.19C409.81,49.18,409.63,49.12,409.44,49.06z"/>
	<path class="st0" d="M407.53,48.44c0.2,0.06,0.4,0.12,0.6,0.19C407.92,48.57,407.73,48.5,407.53,48.44z"/>
	<path class="st0" d="M405.33,47.8c0.14,0.04,0.28,0.08,0.42,0.12C405.62,47.87,405.48,47.84,405.33,47.8z"/>
	<path class="st0" d="M396.99,45.89c0.12,0.02,0.23,0.04,0.35,0.06C397.23,45.93,397.11,45.91,396.99,45.89z"/>
	<path class="st0" d="M309.57,81.1c2.74-3.76,5.76-7.3,9.04-10.59C315.33,73.79,312.31,77.34,309.57,81.1z"/>
	<path class="st0" d="M385.69,44.63c0.1,0,0.21,0.01,0.31,0.01C385.9,44.63,385.8,44.63,385.69,44.63z"/>
	<path class="st0" d="M383.4,44.54c0.18,0,0.36,0.01,0.55,0.01C383.77,44.55,383.59,44.55,383.4,44.54z"/>
	<path class="st0" d="M350.08,50.2c0.5-0.19,0.99-0.37,1.49-0.55C351.07,49.83,350.58,50.01,350.08,50.2z"/>
	<polygon class="st0" points="381.37,44.52 381.37,44.52 381.37,44.52 	"/>
	<path class="st0" d="M410,49.24c0.57,0.19,1.13,0.39,1.7,0.6C411.14,49.64,410.57,49.44,410,49.24z"/>
	<path class="st0" d="M403.86,47.4c0.49,0.13,0.98,0.26,1.47,0.4C404.85,47.66,404.36,47.53,403.86,47.4z"/>
	<path class="st0" d="M420.26,53.48c0.39,0.19,0.78,0.38,1.17,0.58C421.04,53.86,420.65,53.67,420.26,53.48z"/>
	<path class="st0" d="M456.69,86.33c0.03,0.05,0.07,0.11,0.1,0.16C456.75,86.44,456.72,86.38,456.69,86.33z"/>
	<path class="st0" d="M408.12,48.63c0.44,0.14,0.88,0.28,1.32,0.43C409,48.91,408.56,48.77,408.12,48.63z"/>
	<path class="st0" d="M412.29,50.06c0.41,0.15,0.82,0.31,1.22,0.46C413.1,50.37,412.7,50.21,412.29,50.06z"/>
	<path class="st0" d="M416.34,51.68c0.39,0.17,0.78,0.34,1.17,0.51C417.12,52.02,416.73,51.85,416.34,51.68z"/>
	<path class="st0" d="M418.21,52.51c0.41,0.19,0.81,0.37,1.21,0.57C419.02,52.88,418.62,52.7,418.21,52.51z"/>
	<path class="st0" d="M414.15,50.78c0.54,0.22,1.09,0.44,1.63,0.66C415.24,51.21,414.7,50.99,414.15,50.78z"/>
	<path class="st0" d="M405.76,47.91c0.59,0.17,1.18,0.35,1.77,0.53C406.94,48.26,406.35,48.08,405.76,47.91z"/>
	<path class="st0" d="M386,44.64c0.67,0.03,1.33,0.08,1.99,0.13C387.33,44.72,386.67,44.67,386,44.64z"/>
	<path class="st0" d="M388.51,44.81c0.54,0.04,1.08,0.09,1.62,0.14C389.59,44.9,389.05,44.85,388.51,44.81z"/>
	<path class="st0" d="M383.95,44.56c0.58,0.02,1.16,0.04,1.74,0.07C385.11,44.6,384.53,44.58,383.95,44.56z"/>
	<path class="st0" d="M381.37,44.52c0.68,0,1.36,0.01,2.04,0.03C382.73,44.53,382.05,44.52,381.37,44.52z"/>
	<path class="st0" d="M390.58,44.99c0.65,0.07,1.3,0.14,1.95,0.22C391.88,45.13,391.23,45.06,390.58,44.99z"/>
	<path class="st0" d="M401.51,46.82c0.59,0.14,1.18,0.28,1.76,0.43C402.69,47.1,402.1,46.95,401.51,46.82z"/>
	<path class="st0" d="M399.51,46.38c0.59,0.12,1.19,0.25,1.78,0.39C400.7,46.63,400.11,46.5,399.51,46.38z"/>
	<path class="st0" d="M392.98,45.28c0.53,0.07,1.05,0.14,1.57,0.22C394.03,45.42,393.51,45.34,392.98,45.28z"/>
	<path class="st0" d="M395.08,45.57c0.64,0.1,1.28,0.2,1.91,0.32C396.36,45.78,395.72,45.67,395.08,45.57z"/>
	<path class="st0" d="M397.34,45.96c0.54,0.1,1.07,0.2,1.6,0.31C398.41,46.16,397.88,46.05,397.34,45.96z"/>
	<path class="st0" d="M447.8,74.43c0.07,0.07,0.13,0.15,0.2,0.22C447.93,74.58,447.86,74.51,447.8,74.43z"/>
	<path class="st0" d="M458.96,90.19c0.02,0.03,0.04,0.07,0.06,0.1C459,90.25,458.98,90.22,458.96,90.19z"/>
	<path class="st0" d="M448.87,75.67c0.03,0.04,0.07,0.08,0.1,0.12C448.94,75.75,448.91,75.71,448.87,75.67z"/>
	<path class="st0" d="M444.75,71.17c0.1,0.1,0.2,0.2,0.3,0.3C444.95,71.37,444.85,71.27,444.75,71.17z"/>
	<path class="st0" d="M441.59,68.09c0.13,0.12,0.25,0.24,0.38,0.35C441.84,68.32,441.71,68.21,441.59,68.09z"/>
	<path class="st0" d="M451.64,79.08c0.04,0.06,0.09,0.11,0.13,0.17C451.73,79.19,451.68,79.13,451.64,79.08z"/>
	<path class="st0" d="M381.37,44.52c-5.36,0-10.61,0.48-15.71,1.39C370.76,44.99,376,44.52,381.37,44.52L381.37,44.52z"/>
	<path class="st0" d="M454.25,82.63c0.04,0.06,0.08,0.12,0.13,0.18C454.33,82.75,454.29,82.69,454.25,82.63z"/>
	<path class="st0" d="M450.75,77.94c0.01,0.02,0.03,0.03,0.04,0.05C450.77,77.97,450.76,77.95,450.75,77.94z"/>
	<path class="st0" d="M436.93,64.07c0.16,0.13,0.33,0.26,0.49,0.39C437.25,64.33,437.09,64.2,436.93,64.07z"/>
	<path class="st0" d="M426.01,56.56c0.28,0.16,0.56,0.33,0.84,0.5C426.57,56.89,426.29,56.72,426.01,56.56z"/>
	<path class="st0" d="M427.62,57.52c0.45,0.27,0.89,0.55,1.33,0.83C428.51,58.07,428.07,57.79,427.62,57.52z"/>
	<path class="st0" d="M429.75,58.87c0.24,0.16,0.49,0.32,0.73,0.48C430.24,59.18,429.99,59.02,429.75,58.87z"/>
	<path class="st0" d="M423.92,55.37c0.44,0.24,0.88,0.49,1.32,0.74C424.81,55.86,424.36,55.62,423.92,55.37z"/>
	<path class="st0" d="M422.16,54.44c0.33,0.17,0.65,0.34,0.98,0.52C422.82,54.78,422.49,54.61,422.16,54.44z"/>
	<path class="st0" d="M431.3,59.9c0.25,0.17,0.5,0.35,0.76,0.52C431.8,60.24,431.55,60.07,431.3,59.9z"/>
	<path class="st0" d="M438.29,65.18c0.15,0.13,0.31,0.26,0.46,0.39C438.59,65.44,438.44,65.31,438.29,65.18z"/>
	<path class="st0" d="M440.5,67.1c0.06,0.06,0.13,0.11,0.19,0.17C440.63,67.21,440.56,67.16,440.5,67.1z"/>
	<path class="st0" d="M433.38,61.36c0.21,0.15,0.42,0.3,0.62,0.45C433.8,61.66,433.59,61.51,433.38,61.36z"/>
	<path class="st0" d="M434.86,62.45c0.19,0.14,0.37,0.28,0.56,0.43C435.23,62.74,435.04,62.59,434.86,62.45z"/>
	<path class="st0" d="M302.33,92.86c0.81-1.59,1.68-3.14,2.58-4.67C304.01,89.72,303.14,91.27,302.33,92.86z"/>
	<path class="st0" d="M351.57,49.65c1.12-0.4,2.26-0.78,3.4-1.14C353.83,48.86,352.7,49.25,351.57,49.65z"/>
	<path class="st0" d="M334.26,58.05c0.78-0.49,1.57-0.97,2.37-1.44C335.83,57.08,335.04,57.56,334.26,58.05z"/>
	<path class="st0" d="M305.99,86.4c1.13-1.81,2.32-3.58,3.58-5.31C308.32,82.82,307.12,84.59,305.99,86.4z"/>
	<path class="st0" d="M339.26,55.12c3.47-1.88,7.09-3.52,10.82-4.93C346.35,51.6,342.74,53.25,339.26,55.12z"/>
	<path class="st0" d="M327.48,62.75c1.69-1.29,3.42-2.52,5.2-3.69C330.9,60.23,329.16,61.46,327.48,62.75z"/>
	<path class="st0" d="M318.61,70.51c2.2-2.2,4.52-4.29,6.95-6.25C323.14,66.22,320.82,68.31,318.61,70.51z"/>
	<path class="st0" d="M770.71,43.88h-19.73v19.81C757.68,57.05,764.26,50.44,770.71,43.88z"/>
	<path class="st0" d="M770.71,43.88h-19.73v19.81C757.68,57.05,764.26,50.44,770.71,43.88z"/>
	<path class="st0" d="M770.71,43.88h-19.73v19.81C757.68,57.05,764.26,50.44,770.71,43.88z"/>
	<path class="st0" d="M770.71,43.88h-19.73v19.81C757.68,57.05,764.26,50.44,770.71,43.88z"/>
	<path class="st0" d="M129.65,57.99l0.03-13.8l-46.05-0.11l-0.2,82c0,1.84,0.08,3.65,0.22,5.44c1.21-0.12,2.42-0.25,3.63-0.38
		C102.94,108.44,116.96,83.81,129.65,57.99z"/>
	<path class="st0" d="M0,130.38c2.74,0.82,5.5,1.62,8.28,2.38c12.6,0.88,25.19,1.18,37.77,0.97V44.65H0V130.38z"/>
	<path class="st0" d="M0,130.38v1.24c2.74,0.42,5.5,0.81,8.28,1.15C5.5,132,2.74,131.2,0,130.38z"/>
	<path class="st0" d="M0,130.38v1.24c2.74,0.42,5.5,0.81,8.28,1.15C5.5,132,2.74,131.2,0,130.38z"/>
	<path class="st0" d="M83.65,131.53c0.11,1.41,0.26,2.8,0.45,4.17c1.07-1.51,2.13-3.02,3.18-4.55
		C86.07,131.28,84.86,131.41,83.65,131.53z"/>
	<path class="st0" d="M83.65,131.53c0.11,1.41,0.26,2.8,0.45,4.17c1.07-1.51,2.13-3.02,3.18-4.55
		C86.07,131.28,84.86,131.41,83.65,131.53z"/>
	<path class="st0" d="M8.28,132.76c12.31,3.02,24.92,5.55,37.77,7.61v-6.64C33.47,133.94,20.88,133.63,8.28,132.76z"/>
	<path class="st0" d="M8.28,132.76c12.31,3.02,24.92,5.55,37.77,7.61v-6.64C33.47,133.94,20.88,133.63,8.28,132.76z"/>
	<path class="st0" d="M0,131.61v38.22h46.05v-29.46c-12.86-2.06-25.46-4.59-37.77-7.61C5.5,132.42,2.74,132.03,0,131.61z"/>
	<path class="st0" d="M0,131.61v38.22h46.05v-29.46c-12.86-2.06-25.46-4.59-37.77-7.61C5.5,132.42,2.74,132.03,0,131.61z"/>
	<path class="st0" d="M0,183.61v38.22h46.05v-29.46c-12.86-2.06-25.46-4.59-37.77-7.61C5.5,184.42,2.74,184.03,0,183.61z"/>
	<path class="st0" d="M797.84,127.3V43.88h-27.13c-6.44,6.56-13.02,13.17-19.73,19.81v63.6c0,31.13-20.29,47.81-38.63,47.81
		c-2.65,0.09-37.58,0.57-45.72-32.72c-12.25,10.75-24.78,21.47-37.58,32.1c15.72,30.23,46.9,48.38,84.09,47.48
		C762.46,221.74,797.84,178.52,797.84,127.3z"/>
	<path class="st0" d="M797.84,127.3V43.88h-27.13c-6.44,6.56-13.02,13.17-19.73,19.81v63.6c0,31.13-20.29,47.81-38.63,47.81
		c-2.65,0.09-37.58,0.57-45.72-32.72c-12.25,10.75-24.78,21.47-37.58,32.1c15.72,30.23,46.9,48.38,84.09,47.48
		C762.46,221.74,797.84,178.52,797.84,127.3z"/>
	<path class="st0" d="M797.84,127.3V43.88h-27.13c-6.44,6.56-13.02,13.17-19.73,19.81v63.6c0,31.13-20.29,47.81-38.63,47.81
		c-2.65,0.09-37.58,0.57-45.72-32.72c-12.25,10.75-24.78,21.47-37.58,32.1c15.72,30.23,46.9,48.38,84.09,47.48
		C762.46,221.74,797.84,178.52,797.84,127.3z"/>
	<path class="st0" d="M129.49,124.79l0.16-66.8c-12.69,25.81-26.7,50.44-42.37,73.16C101.37,129.64,115.44,127.51,129.49,124.79z"/>
	<path class="st0" d="M129.49,124.79l0.16-66.8c-12.69,25.81-26.7,50.44-42.37,73.16C101.37,129.64,115.44,127.51,129.49,124.79z"/>
	<path class="st0" d="M260.28,44.14h-46.05v57.33c15.4-5.44,30.76-11.5,46.05-18.12V44.14z"/>
	<path class="st0" d="M260.28,44.14h-46.05v57.33c15.4-5.44,30.76-11.5,46.05-18.12V44.14z"/>
	<path class="st0" d="M260.28,126.11V83.35c-15.3,6.62-30.65,12.67-46.05,18.12v24.65c0,6.29-3.15,12.62-7.84,18.55
		c17.4-1.47,34.99-3.48,52.71-6C259.87,134.6,260.28,130.42,260.28,126.11z"/>
	<path class="st0" d="M260.28,126.11V83.35c-15.3,6.62-30.65,12.67-46.05,18.12v24.65c0,6.29-3.15,12.62-7.84,18.55
		c17.4-1.47,34.99-3.48,52.71-6C259.87,134.6,260.28,130.42,260.28,126.11z"/>
	<path class="st0" d="M260.28,126.11V83.35c-15.3,6.62-30.65,12.67-46.05,18.12v24.65c0,6.29-3.15,12.62-7.84,18.55
		c17.4-1.47,34.99-3.48,52.71-6C259.87,134.6,260.28,130.42,260.28,126.11z"/>
	<path class="st0" d="M129.48,126.17l0-1.38c-14.05,2.72-28.12,4.86-42.21,6.36c-1.05,1.53-2.11,3.04-3.18,4.55
		c0.46,3.28,1.15,6.46,2.04,9.55c17.54,1.5,35.45,2.23,53.68,2.26C133.72,141.17,129.5,133.96,129.48,126.17z"/>
	<path class="st0" d="M129.48,126.17l0-1.38c-14.05,2.72-28.12,4.86-42.21,6.36c-1.05,1.53-2.11,3.04-3.18,4.55
		c0.46,3.28,1.15,6.46,2.04,9.55c17.54,1.5,35.45,2.23,53.68,2.26C133.72,141.17,129.5,133.96,129.48,126.17z"/>
	<path class="st0" d="M129.48,126.17l0-1.38c-14.05,2.72-28.12,4.86-42.21,6.36c-1.05,1.53-2.11,3.04-3.18,4.55
		c0.46,3.28,1.15,6.46,2.04,9.55c17.54,1.5,35.45,2.23,53.68,2.26C133.72,141.17,129.5,133.96,129.48,126.17z"/>
	<path class="st0" d="M156.04,212.64c7.77,3.51,21.94,8.29,21.94,8.29c33.12-15.9,73.72-43.45,81.11-82.26
		c-17.72,2.52-35.31,4.53-52.71,6c-8.61,10.89-22.41,20.42-31.47,25.94c-9.84-4.5-25.02-12.62-35.09-23.09
		c-18.23-0.03-36.15-0.76-53.68-2.26C95.44,177.35,127.08,199.56,156.04,212.64z"/>
	<path class="st0" d="M156.04,212.64c7.77,3.51,21.94,8.29,21.94,8.29c33.12-15.9,73.72-43.45,81.11-82.26
		c-17.72,2.52-35.31,4.53-52.71,6c-8.61,10.89-22.41,20.42-31.47,25.94c-9.84-4.5-25.02-12.62-35.09-23.09
		c-18.23-0.03-36.15-0.76-53.68-2.26C95.44,177.35,127.08,199.56,156.04,212.64z"/>
	<path class="st0" d="M156.04,212.64c7.77,3.51,21.94,8.29,21.94,8.29c33.12-15.9,73.72-43.45,81.11-82.26
		c-17.72,2.52-35.31,4.53-52.71,6c-8.61,10.89-22.41,20.42-31.47,25.94c-9.84-4.5-25.02-12.62-35.09-23.09
		c-18.23-0.03-36.15-0.76-53.68-2.26C95.44,177.35,127.08,199.56,156.04,212.64z"/>
	<path class="st0" d="M156.04,212.64c7.77,3.51,21.94,8.29,21.94,8.29c33.12-15.9,73.72-43.45,81.11-82.26
		c-17.72,2.52-35.31,4.53-52.71,6c-8.61,10.89-22.41,20.42-31.47,25.94c-9.84-4.5-25.02-12.62-35.09-23.09
		c-18.23-0.03-36.15-0.76-53.68-2.26C95.44,177.35,127.08,199.56,156.04,212.64z"/>
	<path class="st0" d="M468.65,117.18c0.04,0.22,0.08,0.43,0.12,0.65C468.73,117.61,468.69,117.39,468.65,117.18z"/>
	<path class="st0" d="M468.21,114.96c0.06,0.26,0.11,0.53,0.16,0.79C468.32,115.49,468.27,115.22,468.21,114.96z"/>
	<path class="st0" d="M469.35,121.66c0.02,0.14,0.04,0.27,0.05,0.41C469.39,121.93,469.37,121.79,469.35,121.66z"/>
	<path class="st0" d="M465.96,106.39c0.1,0.32,0.2,0.64,0.3,0.96C466.16,107.03,466.06,106.71,465.96,106.39z"/>
	<path class="st0" d="M466.54,108.31c0.12,0.42,0.24,0.85,0.36,1.27C466.79,109.16,466.67,108.73,466.54,108.31z"/>
	<path class="st0" d="M467.16,110.54c0.07,0.28,0.15,0.55,0.22,0.83C467.31,111.09,467.24,110.82,467.16,110.54z"/>
	<path class="st0" d="M467.75,112.89c0.06,0.25,0.12,0.51,0.18,0.76C467.87,113.4,467.81,113.15,467.75,112.89z"/>
	<path class="st0" d="M469.05,119.56c0.03,0.18,0.05,0.36,0.08,0.54C469.11,119.92,469.08,119.74,469.05,119.56z"/>
	<path class="st0" d="M460.86,93.78c-0.59-1.18-1.2-2.35-1.84-3.5c0.23,0.42,0.46,0.85,0.69,1.27
		C460.1,92.3,460.48,93.04,460.86,93.78z"/>
	<path class="st0" d="M292.62,133.33c0-0.02,0-0.05,0-0.07l0,0c0,28.34,13.29,53.58,33.98,69.83
		C305.93,186.86,292.65,161.65,292.62,133.33z"/>
	<path class="st0" d="M469.62,123.93c0.02,0.17,0.03,0.34,0.05,0.51C469.65,124.27,469.64,124.1,469.62,123.93z"/>
	<path class="st0" d="M469.84,126.35c0.01,0.1,0.01,0.2,0.02,0.3C469.85,126.55,469.85,126.45,469.84,126.35z"/>
	<path class="st0" d="M470.07,130.79c0,0.14,0.01,0.28,0.01,0.42C470.08,131.07,470.07,130.93,470.07,130.79z"/>
	<path class="st0" d="M469.97,128.44c0.01,0.13,0.01,0.26,0.02,0.38C469.99,128.7,469.98,128.57,469.97,128.44z"/>
	<path class="st0" d="M462.69,97.71c0.29,0.66,0.57,1.32,0.84,1.99C463.26,99.04,462.98,98.37,462.69,97.71z"/>
	<path class="st0" d="M463.69,100.08c0.15,0.37,0.3,0.74,0.44,1.12C463.99,100.82,463.84,100.45,463.69,100.08z"/>
	<path class="st0" d="M464.17,101.3c0.27,0.71,0.54,1.43,0.8,2.15C464.71,102.72,464.44,102.01,464.17,101.3z"/>
	<path class="st0" d="M465.18,104.05c0.18,0.52,0.36,1.05,0.53,1.58C465.54,105.1,465.36,104.57,465.18,104.05z"/>
	<path class="st0" d="M460.97,94.01c0.56,1.12,1.09,2.26,1.6,3.41C462.06,96.27,461.52,95.13,460.97,94.01z"/>
	<path class="st0" d="M348.84,215.85c-0.51-0.2-1.02-0.41-1.53-0.62C347.82,215.44,348.32,215.65,348.84,215.85z"/>
	<path class="st0" d="M350.86,216.62c-0.47-0.17-0.94-0.35-1.41-0.54C349.92,216.27,350.39,216.45,350.86,216.62z"/>
	<path class="st0" d="M346.83,215.03c-0.52-0.22-1.03-0.45-1.54-0.67C345.8,214.59,346.32,214.81,346.83,215.03z"/>
	<path class="st0" d="M352.91,217.34c-0.48-0.16-0.96-0.33-1.44-0.51C351.95,217.01,352.43,217.18,352.91,217.34z"/>
	<path class="st0" d="M340.98,212.3c-0.55-0.28-1.09-0.57-1.63-0.86C339.89,211.73,340.43,212.02,340.98,212.3z"/>
	<path class="st0" d="M344.86,214.17c-0.51-0.23-1.01-0.47-1.51-0.71C343.85,213.7,344.35,213.94,344.86,214.17z"/>
	<path class="st0" d="M342.9,213.26c-0.53-0.25-1.05-0.52-1.57-0.78C341.85,212.74,342.38,213,342.9,213.26z"/>
	<path class="st0" d="M357.08,218.64c-0.45-0.13-0.9-0.27-1.36-0.4C356.17,218.37,356.62,218.51,357.08,218.64z"/>
	<path class="st0" d="M354.98,218.01c-0.46-0.14-0.91-0.29-1.37-0.44C354.07,217.72,354.53,217.87,354.98,218.01z"/>
	<path class="st0" d="M339.08,211.3c-0.55-0.3-1.09-0.6-1.63-0.91C337.99,210.7,338.53,211,339.08,211.3z"/>
	<path class="st0" d="M328.29,204.39c-0.56-0.42-1.11-0.84-1.66-1.27C327.18,203.55,327.73,203.97,328.29,204.39z"/>
	<path class="st0" d="M295.15,112.18c0.33-1.37,0.7-2.72,1.09-4.06C295.85,109.46,295.48,110.81,295.15,112.18z"/>
	<path class="st0" d="M297.05,105.53c0.45-1.37,0.93-2.72,1.44-4.06C297.98,102.81,297.5,104.16,297.05,105.53z"/>
	<path class="st0" d="M300.21,97.31c0.67-1.5,1.37-2.99,2.12-4.44C301.58,94.32,300.88,95.8,300.21,97.31z"/>
	<path class="st0" d="M294.21,116.52c0.13-0.7,0.28-1.4,0.43-2.1C294.48,115.12,294.34,115.82,294.21,116.52z"/>
	<path class="st0" d="M331.77,206.86c-0.56-0.38-1.12-0.76-1.67-1.15C330.65,206.09,331.21,206.48,331.77,206.86z"/>
	<path class="st0" d="M335.37,209.16c-0.55-0.33-1.09-0.67-1.62-1.01C334.28,208.49,334.82,208.83,335.37,209.16z"/>
	<path class="st0" d="M333.55,208.03c-0.55-0.35-1.09-0.71-1.64-1.08C332.46,207.32,333,207.68,333.55,208.03z"/>
	<path class="st0" d="M330.01,205.64c-0.56-0.4-1.11-0.8-1.66-1.21C328.9,204.84,329.45,205.24,330.01,205.64z"/>
	<path class="st0" d="M337.21,210.25c-0.53-0.31-1.06-0.62-1.59-0.94C336.14,209.63,336.67,209.95,337.21,210.25z"/>
	<path class="st0" d="M298.49,101.47c0.54-1.41,1.11-2.79,1.72-4.16C299.61,98.68,299.03,100.06,298.49,101.47z"/>
	<path class="st0" d="M296.24,108.12c0.26-0.87,0.53-1.73,0.81-2.59C296.77,106.38,296.5,107.25,296.24,108.12z"/>
	<path class="st0" d="M294.63,114.42c0.16-0.75,0.33-1.5,0.52-2.24C294.97,112.92,294.8,113.67,294.63,114.42z"/>
	<path class="st0" d="M292.62,133.26L292.62,133.26c0-5.72,0.55-11.32,1.58-16.74C293.17,121.94,292.62,127.54,292.62,133.26z"/>
	<path class="st0" d="M340.11,123.92c4.25-18.87,21.11-32.96,41.26-32.96c12.75,0,24.17,5.64,31.93,14.56
		c15.52-4.38,31-9.04,46.42-13.96c-0.23-0.43-0.46-0.85-0.69-1.27c-0.02-0.03-0.04-0.07-0.06-0.1c-0.7-1.25-1.42-2.48-2.17-3.69
		c-0.03-0.05-0.07-0.11-0.1-0.16c-0.74-1.19-1.52-2.36-2.31-3.52c-0.04-0.06-0.08-0.12-0.13-0.18c-0.8-1.15-1.62-2.28-2.48-3.38
		c-0.04-0.06-0.09-0.11-0.13-0.17c-0.28-0.37-0.57-0.73-0.86-1.09c-0.01-0.02-0.03-0.03-0.04-0.05c-0.58-0.73-1.17-1.44-1.77-2.15
		c-0.03-0.04-0.07-0.08-0.1-0.12c-0.29-0.34-0.58-0.68-0.88-1.01c-0.07-0.07-0.13-0.15-0.2-0.22c-0.89-1.01-1.81-1.99-2.75-2.96
		c-0.1-0.1-0.2-0.2-0.3-0.3c-0.91-0.93-1.84-1.84-2.79-2.73c-0.13-0.12-0.25-0.24-0.38-0.35c-0.3-0.27-0.59-0.55-0.89-0.82
		c-0.06-0.06-0.13-0.11-0.19-0.17c-0.58-0.52-1.16-1.03-1.75-1.53c-0.15-0.13-0.3-0.26-0.46-0.39c-0.29-0.24-0.58-0.49-0.88-0.72
		c-0.16-0.13-0.32-0.26-0.49-0.39c-0.5-0.4-1-0.8-1.51-1.19c-0.19-0.14-0.37-0.29-0.56-0.43c-0.28-0.21-0.57-0.43-0.85-0.64
		c-0.21-0.15-0.41-0.3-0.62-0.45c-0.44-0.32-0.88-0.63-1.33-0.94c-0.25-0.18-0.5-0.35-0.76-0.52c-0.27-0.19-0.55-0.37-0.82-0.55
		c-0.24-0.16-0.48-0.32-0.73-0.48c-0.27-0.17-0.53-0.35-0.8-0.52c-0.44-0.28-0.89-0.56-1.33-0.83c-0.26-0.16-0.51-0.31-0.77-0.46
		c-0.28-0.17-0.56-0.33-0.84-0.5c-0.26-0.15-0.51-0.3-0.77-0.45c-0.44-0.25-0.88-0.5-1.32-0.74c-0.26-0.14-0.52-0.28-0.78-0.42
		c-0.33-0.17-0.65-0.35-0.98-0.52c-0.25-0.13-0.49-0.25-0.74-0.38c-0.39-0.2-0.78-0.39-1.17-0.58c-0.28-0.14-0.56-0.27-0.84-0.4
		c-0.4-0.19-0.81-0.38-1.21-0.57c-0.23-0.11-0.47-0.21-0.7-0.32c-0.39-0.17-0.78-0.35-1.17-0.51c-0.19-0.08-0.37-0.16-0.56-0.24
		c-0.54-0.23-1.08-0.45-1.63-0.66c-0.21-0.09-0.43-0.17-0.65-0.25c-0.41-0.16-0.81-0.31-1.22-0.46c-0.2-0.07-0.39-0.15-0.59-0.22
		c-0.56-0.2-1.13-0.4-1.7-0.6c-0.19-0.06-0.38-0.13-0.56-0.19c-0.44-0.15-0.88-0.29-1.32-0.43c-0.2-0.06-0.4-0.13-0.6-0.19
		c-0.59-0.18-1.18-0.36-1.77-0.53c-0.14-0.04-0.28-0.08-0.42-0.12c-0.49-0.14-0.98-0.27-1.47-0.4c-0.2-0.05-0.39-0.1-0.59-0.15
		c-0.58-0.15-1.17-0.29-1.76-0.43c-0.07-0.02-0.15-0.03-0.22-0.05c-0.59-0.14-1.18-0.26-1.78-0.39c-0.19-0.04-0.38-0.08-0.57-0.12
		c-0.53-0.11-1.07-0.21-1.6-0.31c-0.12-0.02-0.23-0.04-0.35-0.06c-0.63-0.11-1.27-0.22-1.91-0.32c-0.18-0.03-0.35-0.05-0.53-0.08
		c-0.52-0.08-1.05-0.15-1.57-0.22c-0.15-0.02-0.3-0.04-0.46-0.06c-0.65-0.08-1.3-0.16-1.95-0.22c-0.15-0.02-0.3-0.03-0.45-0.04
		c-0.54-0.05-1.08-0.1-1.62-0.14c-0.17-0.01-0.34-0.03-0.52-0.04c-0.66-0.05-1.33-0.09-1.99-0.13c-0.1-0.01-0.21-0.01-0.31-0.01
		c-0.58-0.03-1.16-0.05-1.74-0.07c-0.18-0.01-0.36-0.01-0.55-0.01c-0.68-0.02-1.36-0.03-2.04-0.03c0,0,0,0,0,0
		c-5.36,0-10.61,0.48-15.71,1.39c-3.64,0.65-7.21,1.52-10.68,2.6c-1.14,0.36-2.28,0.74-3.4,1.14c-0.5,0.18-1,0.36-1.49,0.55
		c-3.73,1.41-7.35,3.05-10.82,4.93c-0.89,0.48-1.77,0.98-2.64,1.49c-0.8,0.47-1.59,0.95-2.37,1.44c-0.53,0.33-1.06,0.67-1.58,1.02
		c-1.78,1.17-3.51,2.4-5.2,3.69c-0.65,0.49-1.28,1-1.92,1.51c-2.42,1.96-4.75,4.05-6.95,6.25c-3.28,3.28-6.3,6.83-9.04,10.59
		c-1.25,1.72-2.45,3.49-3.58,5.31c-0.37,0.59-0.73,1.19-1.08,1.79c-0.9,1.53-1.77,3.08-2.58,4.67c-0.75,1.46-1.45,2.94-2.12,4.44
		c-0.61,1.37-1.18,2.76-1.72,4.16c-0.51,1.34-0.99,2.69-1.44,4.06c-0.28,0.86-0.55,1.72-0.81,2.59c-0.4,1.34-0.76,2.69-1.09,4.06
		c-0.18,0.74-0.35,1.49-0.52,2.24c-0.15,0.7-0.29,1.4-0.43,2.1c-1.04,5.42-1.58,11.02-1.58,16.74c0,0.02,0,0.05,0,0.07
		C308.39,130.56,324.24,127.41,340.11,123.92z"/>
	<path class="st0" d="M340.11,123.92c4.25-18.87,21.11-32.96,41.26-32.96c12.75,0,24.17,5.64,31.93,14.56
		c15.52-4.38,31-9.04,46.42-13.96c-0.23-0.43-0.46-0.85-0.69-1.27c-0.02-0.03-0.04-0.07-0.06-0.1c-0.7-1.25-1.42-2.48-2.17-3.69
		c-0.03-0.05-0.07-0.11-0.1-0.16c-0.74-1.19-1.52-2.36-2.31-3.52c-0.04-0.06-0.08-0.12-0.13-0.18c-0.8-1.15-1.62-2.28-2.48-3.38
		c-0.04-0.06-0.09-0.11-0.13-0.17c-0.28-0.37-0.57-0.73-0.86-1.09c-0.01-0.02-0.03-0.03-0.04-0.05c-0.58-0.73-1.17-1.44-1.77-2.15
		c-0.03-0.04-0.07-0.08-0.1-0.12c-0.29-0.34-0.58-0.68-0.88-1.01c-0.07-0.07-0.13-0.15-0.2-0.22c-0.89-1.01-1.81-1.99-2.75-2.96
		c-0.1-0.1-0.2-0.2-0.3-0.3c-0.91-0.93-1.84-1.84-2.79-2.73c-0.13-0.12-0.25-0.24-0.38-0.35c-0.3-0.27-0.59-0.55-0.89-0.82
		c-0.06-0.06-0.13-0.11-0.19-0.17c-0.58-0.52-1.16-1.03-1.75-1.53c-0.15-0.13-0.3-0.26-0.46-0.39c-0.29-0.24-0.58-0.49-0.88-0.72
		c-0.16-0.13-0.32-0.26-0.49-0.39c-0.5-0.4-1-0.8-1.51-1.19c-0.19-0.14-0.37-0.29-0.56-0.43c-0.28-0.21-0.57-0.43-0.85-0.64
		c-0.21-0.15-0.41-0.3-0.62-0.45c-0.44-0.32-0.88-0.63-1.33-0.94c-0.25-0.18-0.5-0.35-0.76-0.52c-0.27-0.19-0.55-0.37-0.82-0.55
		c-0.24-0.16-0.48-0.32-0.73-0.48c-0.27-0.17-0.53-0.35-0.8-0.52c-0.44-0.28-0.89-0.56-1.33-0.83c-0.26-0.16-0.51-0.31-0.77-0.46
		c-0.28-0.17-0.56-0.33-0.84-0.5c-0.26-0.15-0.51-0.3-0.77-0.45c-0.44-0.25-0.88-0.5-1.32-0.74c-0.26-0.14-0.52-0.28-0.78-0.42
		c-0.33-0.17-0.65-0.35-0.98-0.52c-0.25-0.13-0.49-0.25-0.74-0.38c-0.39-0.2-0.78-0.39-1.17-0.58c-0.28-0.14-0.56-0.27-0.84-0.4
		c-0.4-0.19-0.81-0.38-1.21-0.57c-0.23-0.11-0.47-0.21-0.7-0.32c-0.39-0.17-0.78-0.35-1.17-0.51c-0.19-0.08-0.37-0.16-0.56-0.24
		c-0.54-0.23-1.08-0.45-1.63-0.66c-0.21-0.09-0.43-0.17-0.65-0.25c-0.41-0.16-0.81-0.31-1.22-0.46c-0.2-0.07-0.39-0.15-0.59-0.22
		c-0.56-0.2-1.13-0.4-1.7-0.6c-0.19-0.06-0.38-0.13-0.56-0.19c-0.44-0.15-0.88-0.29-1.32-0.43c-0.2-0.06-0.4-0.13-0.6-0.19
		c-0.59-0.18-1.18-0.36-1.77-0.53c-0.14-0.04-0.28-0.08-0.42-0.12c-0.49-0.14-0.98-0.27-1.47-0.4c-0.2-0.05-0.39-0.1-0.59-0.15
		c-0.58-0.15-1.17-0.29-1.76-0.43c-0.07-0.02-0.15-0.03-0.22-0.05c-0.59-0.14-1.18-0.26-1.78-0.39c-0.19-0.04-0.38-0.08-0.57-0.12
		c-0.53-0.11-1.07-0.21-1.6-0.31c-0.12-0.02-0.23-0.04-0.35-0.06c-0.63-0.11-1.27-0.22-1.91-0.32c-0.18-0.03-0.35-0.05-0.53-0.08
		c-0.52-0.08-1.05-0.15-1.57-0.22c-0.15-0.02-0.3-0.04-0.46-0.06c-0.65-0.08-1.3-0.16-1.95-0.22c-0.15-0.02-0.3-0.03-0.45-0.04
		c-0.54-0.05-1.08-0.1-1.62-0.14c-0.17-0.01-0.34-0.03-0.52-0.04c-0.66-0.05-1.33-0.09-1.99-0.13c-0.1-0.01-0.21-0.01-0.31-0.01
		c-0.58-0.03-1.16-0.05-1.74-0.07c-0.18-0.01-0.36-0.01-0.55-0.01c-0.68-0.02-1.36-0.03-2.04-0.03c0,0,0,0,0,0
		c-5.36,0-10.61,0.48-15.71,1.39c-3.64,0.65-7.21,1.52-10.68,2.6c-1.14,0.36-2.28,0.74-3.4,1.14c-0.5,0.18-1,0.36-1.49,0.55
		c-3.73,1.41-7.35,3.05-10.82,4.93c-0.89,0.48-1.77,0.98-2.64,1.49c-0.8,0.47-1.59,0.95-2.37,1.44c-0.53,0.33-1.06,0.67-1.58,1.02
		c-1.78,1.17-3.51,2.4-5.2,3.69c-0.65,0.49-1.28,1-1.92,1.51c-2.42,1.96-4.75,4.05-6.95,6.25c-3.28,3.28-6.3,6.83-9.04,10.59
		c-1.25,1.72-2.45,3.49-3.58,5.31c-0.37,0.59-0.73,1.19-1.08,1.79c-0.9,1.53-1.77,3.08-2.58,4.67c-0.75,1.46-1.45,2.94-2.12,4.44
		c-0.61,1.37-1.18,2.76-1.72,4.16c-0.51,1.34-0.99,2.69-1.44,4.06c-0.28,0.86-0.55,1.72-0.81,2.59c-0.4,1.34-0.76,2.69-1.09,4.06
		c-0.18,0.74-0.35,1.49-0.52,2.24c-0.15,0.7-0.29,1.4-0.43,2.1c-1.04,5.42-1.58,11.02-1.58,16.74c0,0.02,0,0.05,0,0.07
		C308.39,130.56,324.24,127.41,340.11,123.92z"/>
	<path class="st0" d="M664.93,127.3V43.88h-46.87v83.42c0,17.73,3.94,33.67,10.98,47.19c12.8-10.63,25.33-21.34,37.58-32.1
		C665.54,137.98,664.93,132.97,664.93,127.3z"/>
	<path class="st0" d="M664.93,127.3V43.88h-46.87v83.42c0,17.73,3.94,33.67,10.98,47.19c12.8-10.63,25.33-21.34,37.58-32.1
		C665.54,137.98,664.93,132.97,664.93,127.3z"/>
	<path class="st0" d="M664.93,127.3V43.88h-46.87v83.42c0,17.73,3.94,33.67,10.98,47.19c12.8-10.63,25.33-21.34,37.58-32.1
		C665.54,137.98,664.93,132.97,664.93,127.3z"/>
	<path class="st0" d="M664.93,127.3V43.88h-46.87v83.42c0,17.73,3.94,33.67,10.98,47.19c12.8-10.63,25.33-21.34,37.58-32.1
		C665.54,137.98,664.93,132.97,664.93,127.3z"/>
	<path class="st0" d="M520.03,70.88V222h46.05V53.2C550.88,59.31,535.52,65.21,520.03,70.88z"/>
	<path class="st0" d="M520.03,70.88V222h46.05V53.2C550.88,59.31,535.52,65.21,520.03,70.88z"/>
	<path class="st0" d="M520.03,70.88V222h46.05V53.2C550.88,59.31,535.52,65.21,520.03,70.88z"/>
	<path class="st0" d="M520.03,70.88V222h46.05V53.2C550.88,59.31,535.52,65.21,520.03,70.88z"/>
	<path class="st0" d="M412.94,105.62L412.94,105.62c0.12-0.03,0.24-0.07,0.36-0.1C413.17,105.56,413.05,105.59,412.94,105.62z"/>
	<path class="st0" d="M470.08,131.21c0-0.14-0.01-0.28-0.01-0.42c-0.02-0.66-0.04-1.31-0.07-1.97c-0.01-0.13-0.01-0.26-0.02-0.38
		c-0.03-0.6-0.07-1.2-0.11-1.79c-0.01-0.1-0.01-0.2-0.02-0.3c-0.05-0.64-0.11-1.28-0.17-1.91c-0.02-0.17-0.03-0.34-0.05-0.51
		c-0.07-0.62-0.13-1.24-0.21-1.86c-0.02-0.14-0.04-0.27-0.05-0.41c-0.07-0.52-0.14-1.04-0.22-1.56c-0.03-0.18-0.05-0.36-0.08-0.54
		c-0.09-0.58-0.19-1.16-0.29-1.73c-0.04-0.22-0.08-0.43-0.12-0.65c-0.09-0.48-0.18-0.95-0.27-1.42c-0.05-0.26-0.11-0.53-0.16-0.79
		c-0.09-0.43-0.19-0.87-0.28-1.3c-0.06-0.26-0.12-0.51-0.18-0.76c-0.12-0.51-0.24-1.02-0.37-1.53c-0.07-0.28-0.14-0.55-0.22-0.83
		c-0.08-0.32-0.17-0.64-0.26-0.96c-0.12-0.43-0.24-0.85-0.36-1.27c-0.09-0.32-0.19-0.64-0.29-0.96c-0.1-0.32-0.2-0.64-0.3-0.96
		c-0.08-0.26-0.17-0.51-0.25-0.77c-0.17-0.53-0.35-1.05-0.53-1.58c-0.07-0.2-0.14-0.4-0.21-0.6c-0.26-0.72-0.52-1.43-0.8-2.15
		c-0.01-0.03-0.03-0.07-0.04-0.1c-0.14-0.37-0.29-0.74-0.44-1.12c-0.05-0.12-0.1-0.25-0.15-0.37c-0.27-0.67-0.55-1.33-0.84-1.99
		c-0.04-0.1-0.08-0.19-0.13-0.29c-0.51-1.15-1.04-2.29-1.6-3.41c-0.04-0.07-0.07-0.15-0.11-0.22c-0.37-0.75-0.75-1.49-1.14-2.22
		c-15.42,4.92-30.9,9.59-46.42,13.96c-0.12,0.03-0.24,0.07-0.36,0.1c5.18,6.79,8.26,15.27,8.26,24.48
		c0,22.3-18.08,40.39-40.39,40.39c-22.3,0-41.38-17.82-41.38-40.13c0-2.16,0.35-4.36,0.68-6.43c-0.27,0.06,0.27-0.06,0,0
		c-15.87,3.49-31.71,6.63-47.48,9.41c0.02,28.31,13.3,53.53,33.97,69.76c0.01,0.01,0.02,0.02,0.03,0.03
		c0.55,0.43,1.1,0.85,1.66,1.27c0.02,0.01,0.04,0.03,0.06,0.04c0.55,0.41,1.1,0.82,1.66,1.21c0.03,0.02,0.06,0.04,0.09,0.06
		c0.55,0.39,1.11,0.78,1.67,1.15c0.05,0.03,0.1,0.06,0.15,0.1c0.54,0.36,1.09,0.72,1.64,1.08c0.06,0.04,0.13,0.08,0.19,0.12
		c0.54,0.34,1.08,0.68,1.62,1.01c0.08,0.05,0.17,0.1,0.25,0.15c0.53,0.32,1.06,0.63,1.59,0.94c0.08,0.05,0.16,0.09,0.25,0.14
		c0.54,0.31,1.08,0.61,1.63,0.91c0.09,0.05,0.18,0.09,0.27,0.14c0.54,0.29,1.08,0.58,1.63,0.86c0.12,0.06,0.24,0.12,0.35,0.17
		c0.52,0.26,1.05,0.53,1.57,0.78c0.15,0.07,0.29,0.14,0.44,0.21c0.5,0.24,1,0.48,1.51,0.71c0.14,0.07,0.29,0.13,0.44,0.19
		c0.51,0.23,1.02,0.46,1.54,0.67c0.16,0.07,0.32,0.13,0.47,0.19c0.51,0.21,1.02,0.42,1.53,0.62c0.2,0.08,0.41,0.16,0.62,0.24
		c0.47,0.18,0.94,0.36,1.41,0.54c0.2,0.07,0.41,0.14,0.61,0.22c0.48,0.17,0.95,0.34,1.44,0.51c0.23,0.08,0.47,0.15,0.71,0.23
		c0.45,0.15,0.91,0.3,1.37,0.44c0.24,0.08,0.49,0.15,0.74,0.22c0.45,0.14,0.9,0.27,1.36,0.4c0.26,0.07,0.53,0.14,0.8,0.22
		c0.44,0.12,0.88,0.24,1.32,0.36c0.29,0.08,0.59,0.14,0.89,0.22c0.42,0.1,0.83,0.21,1.25,0.3c0.3,0.07,0.6,0.13,0.91,0.2
		c0.42,0.09,0.83,0.19,1.25,0.27c0.32,0.07,0.65,0.12,0.98,0.19c0.4,0.08,0.8,0.16,1.2,0.23c0.33,0.06,0.67,0.11,1.01,0.17
		c0.4,0.07,0.79,0.14,1.19,0.2c0.4,0.06,0.79,0.11,1.19,0.17c0.34,0.05,0.68,0.1,1.02,0.14c0.47,0.06,0.94,0.11,1.41,0.16
		c0.27,0.03,0.54,0.07,0.81,0.09c0.44,0.04,0.88,0.08,1.32,0.12c0.31,0.03,0.62,0.06,0.93,0.08c0.39,0.03,0.77,0.05,1.16,0.07
		c0.37,0.02,0.73,0.05,1.1,0.07c0.36,0.02,0.73,0.03,1.09,0.04c0.39,0.02,0.79,0.03,1.18,0.04c0.76,0.02,1.52,0.03,2.29,0.03
		c1.02,0,2.03-0.02,3.04-0.05c1.21-0.04,2.41-0.11,3.6-0.19c0.34-0.03,0.69-0.05,1.03-0.08c0.94-0.08,1.87-0.18,2.8-0.28
		c0.59-0.07,1.18-0.14,1.76-0.22c10.75-1.48,20.89-4.89,30.06-9.87h46.45v0v-78.03C470.11,132.58,470.09,131.89,470.08,131.21z"/>
	<path class="st0" d="M470.08,131.21c0-0.14-0.01-0.28-0.01-0.42c-0.02-0.66-0.04-1.31-0.07-1.97c-0.01-0.13-0.01-0.26-0.02-0.38
		c-0.03-0.6-0.07-1.2-0.11-1.79c-0.01-0.1-0.01-0.2-0.02-0.3c-0.05-0.64-0.11-1.28-0.17-1.91c-0.02-0.17-0.03-0.34-0.05-0.51
		c-0.07-0.62-0.13-1.24-0.21-1.86c-0.02-0.14-0.04-0.27-0.05-0.41c-0.07-0.52-0.14-1.04-0.22-1.56c-0.03-0.18-0.05-0.36-0.08-0.54
		c-0.09-0.58-0.19-1.16-0.29-1.73c-0.04-0.22-0.08-0.43-0.12-0.65c-0.09-0.48-0.18-0.95-0.27-1.42c-0.05-0.26-0.11-0.53-0.16-0.79
		c-0.09-0.43-0.19-0.87-0.28-1.3c-0.06-0.26-0.12-0.51-0.18-0.76c-0.12-0.51-0.24-1.02-0.37-1.53c-0.07-0.28-0.14-0.55-0.22-0.83
		c-0.08-0.32-0.17-0.64-0.26-0.96c-0.12-0.43-0.24-0.85-0.36-1.27c-0.09-0.32-0.19-0.64-0.29-0.96c-0.1-0.32-0.2-0.64-0.3-0.96
		c-0.08-0.26-0.17-0.51-0.25-0.77c-0.17-0.53-0.35-1.05-0.53-1.58c-0.07-0.2-0.14-0.4-0.21-0.6c-0.26-0.72-0.52-1.43-0.8-2.15
		c-0.01-0.03-0.03-0.07-0.04-0.1c-0.14-0.37-0.29-0.74-0.44-1.12c-0.05-0.12-0.1-0.25-0.15-0.37c-0.27-0.67-0.55-1.33-0.84-1.99
		c-0.04-0.1-0.08-0.19-0.13-0.29c-0.51-1.15-1.04-2.29-1.6-3.41c-0.04-0.07-0.07-0.15-0.11-0.22c-0.37-0.75-0.75-1.49-1.14-2.22
		c-15.42,4.92-30.9,9.59-46.42,13.96c-0.12,0.03-0.24,0.07-0.36,0.1c5.18,6.79,8.26,15.27,8.26,24.48
		c0,22.3-18.08,40.39-40.39,40.39c-22.3,0-41.05-17.98-41.05-40.28c0-2.16,0.02-4.21,0.34-6.28c-0.27,0.06,0.27-0.06,0,0
		c-15.87,3.49-31.71,6.63-47.48,9.41c0.02,28.31,13.3,53.53,33.97,69.76c0.01,0.01,0.02,0.02,0.03,0.03
		c0.55,0.43,1.1,0.85,1.66,1.27c0.02,0.01,0.04,0.03,0.06,0.04c0.55,0.41,1.1,0.82,1.66,1.21c0.03,0.02,0.06,0.04,0.09,0.06
		c0.55,0.39,1.11,0.78,1.67,1.15c0.05,0.03,0.1,0.06,0.15,0.1c0.54,0.36,1.09,0.72,1.64,1.08c0.06,0.04,0.13,0.08,0.19,0.12
		c0.54,0.34,1.08,0.68,1.62,1.01c0.08,0.05,0.17,0.1,0.25,0.15c0.53,0.32,1.06,0.63,1.59,0.94c0.08,0.05,0.16,0.09,0.25,0.14
		c0.54,0.31,1.08,0.61,1.63,0.91c0.09,0.05,0.18,0.09,0.27,0.14c0.54,0.29,1.08,0.58,1.63,0.86c0.12,0.06,0.24,0.12,0.35,0.17
		c0.52,0.26,1.05,0.53,1.57,0.78c0.15,0.07,0.29,0.14,0.44,0.21c0.5,0.24,1,0.48,1.51,0.71c0.14,0.07,0.29,0.13,0.44,0.19
		c0.51,0.23,1.02,0.46,1.54,0.67c0.16,0.07,0.32,0.13,0.47,0.19c0.51,0.21,1.02,0.42,1.53,0.62c0.2,0.08,0.41,0.16,0.62,0.24
		c0.47,0.18,0.94,0.36,1.41,0.54c0.2,0.07,0.41,0.14,0.61,0.22c0.48,0.17,0.95,0.34,1.44,0.51c0.23,0.08,0.47,0.15,0.71,0.23
		c0.45,0.15,0.91,0.3,1.37,0.44c0.24,0.08,0.49,0.15,0.74,0.22c0.45,0.14,0.9,0.27,1.36,0.4c0.26,0.07,0.53,0.14,0.8,0.22
		c0.44,0.12,0.88,0.24,1.32,0.36c0.29,0.08,0.59,0.14,0.89,0.22c0.42,0.1,0.83,0.21,1.25,0.3c0.3,0.07,0.6,0.13,0.91,0.2
		c0.42,0.09,0.83,0.19,1.25,0.27c0.32,0.07,0.65,0.12,0.98,0.19c0.4,0.08,0.8,0.16,1.2,0.23c0.33,0.06,0.67,0.11,1.01,0.17
		c0.4,0.07,0.79,0.14,1.19,0.2c0.4,0.06,0.79,0.11,1.19,0.17c0.34,0.05,0.68,0.1,1.02,0.14c0.47,0.06,0.94,0.11,1.41,0.16
		c0.27,0.03,0.54,0.07,0.81,0.09c0.44,0.04,0.88,0.08,1.32,0.12c0.31,0.03,0.62,0.06,0.93,0.08c0.39,0.03,0.77,0.05,1.16,0.07
		c0.37,0.02,0.73,0.05,1.1,0.07c0.36,0.02,0.73,0.03,1.09,0.04c0.39,0.02,0.79,0.03,1.18,0.04c0.76,0.02,1.52,0.03,2.29,0.03
		c1.02,0,2.03-0.02,3.04-0.05c1.21-0.04,2.41-0.11,3.6-0.19c0.34-0.03,0.69-0.05,1.03-0.08c0.94-0.08,1.87-0.18,2.8-0.28
		c0.59-0.07,1.18-0.14,1.76-0.22c10.75-1.48,20.89-4.89,30.06-9.87h46.45v0v-78.03C470.11,132.58,470.09,131.89,470.08,131.21z"/>
	<path class="st0" d="M470.08,131.21c0-0.14-0.01-0.28-0.01-0.42c-0.02-0.66-0.04-1.31-0.07-1.97c-0.01-0.13-0.01-0.26-0.02-0.38
		c-0.03-0.6-0.07-1.2-0.11-1.79c-0.01-0.1-0.01-0.2-0.02-0.3c-0.05-0.64-0.11-1.28-0.17-1.91c-0.02-0.17-0.03-0.34-0.05-0.51
		c-0.07-0.62-0.13-1.24-0.21-1.86c-0.02-0.14-0.04-0.27-0.05-0.41c-0.07-0.52-0.14-1.04-0.22-1.56c-0.03-0.18-0.05-0.36-0.08-0.54
		c-0.09-0.58-0.19-1.16-0.29-1.73c-0.04-0.22-0.08-0.43-0.12-0.65c-0.09-0.48-0.18-0.95-0.27-1.42c-0.05-0.26-0.11-0.53-0.16-0.79
		c-0.09-0.43-0.19-0.87-0.28-1.3c-0.06-0.26-0.12-0.51-0.18-0.76c-0.12-0.51-0.24-1.02-0.37-1.53c-0.07-0.28-0.14-0.55-0.22-0.83
		c-0.08-0.32-0.17-0.64-0.26-0.96c-0.12-0.43-0.24-0.85-0.36-1.27c-0.09-0.32-0.19-0.64-0.29-0.96c-0.1-0.32-0.2-0.64-0.3-0.96
		c-0.08-0.26-0.17-0.51-0.25-0.77c-0.17-0.53-0.35-1.05-0.53-1.58c-0.07-0.2-0.14-0.4-0.21-0.6c-0.26-0.72-0.52-1.43-0.8-2.15
		c-0.01-0.03-0.03-0.07-0.04-0.1c-0.14-0.37-0.29-0.74-0.44-1.12c-0.05-0.12-0.1-0.25-0.15-0.37c-0.27-0.67-0.55-1.33-0.84-1.99
		c-0.04-0.1-0.08-0.19-0.13-0.29c-0.51-1.15-1.04-2.29-1.6-3.41c-0.04-0.07-0.07-0.15-0.11-0.22c-0.37-0.75-0.75-1.49-1.14-2.22
		c-15.42,4.92-30.9,9.59-46.42,13.96c-0.12,0.03-0.24,0.07-0.36,0.1c5.18,6.79,8.26,15.27,8.26,24.48
		c0,22.3-18.08,40.39-40.39,40.39c-22.3,0-41.05-17.98-41.05-40.28c0-2.16,0.02-4.21,0.34-6.28c-0.27,0.06,0.27-0.06,0,0
		c-15.87,3.49-31.71,6.63-47.48,9.41c0.02,28.31,13.3,53.53,33.97,69.76c0.01,0.01,0.02,0.02,0.03,0.03
		c0.55,0.43,1.1,0.85,1.66,1.27c0.02,0.01,0.04,0.03,0.06,0.04c0.55,0.41,1.1,0.82,1.66,1.21c0.03,0.02,0.06,0.04,0.09,0.06
		c0.55,0.39,1.11,0.78,1.67,1.15c0.05,0.03,0.1,0.06,0.15,0.1c0.54,0.36,1.09,0.72,1.64,1.08c0.06,0.04,0.13,0.08,0.19,0.12
		c0.54,0.34,1.08,0.68,1.62,1.01c0.08,0.05,0.17,0.1,0.25,0.15c0.53,0.32,1.06,0.63,1.59,0.94c0.08,0.05,0.16,0.09,0.25,0.14
		c0.54,0.31,1.08,0.61,1.63,0.91c0.09,0.05,0.18,0.09,0.27,0.14c0.54,0.29,1.08,0.58,1.63,0.86c0.12,0.06,0.24,0.12,0.35,0.17
		c0.52,0.26,1.05,0.53,1.57,0.78c0.15,0.07,0.29,0.14,0.44,0.21c0.5,0.24,1,0.48,1.51,0.71c0.14,0.07,0.29,0.13,0.44,0.19
		c0.51,0.23,1.02,0.46,1.54,0.67c0.16,0.07,0.32,0.13,0.47,0.19c0.51,0.21,1.02,0.42,1.53,0.62c0.2,0.08,0.41,0.16,0.62,0.24
		c0.47,0.18,0.94,0.36,1.41,0.54c0.2,0.07,0.41,0.14,0.61,0.22c0.48,0.17,0.95,0.34,1.44,0.51c0.23,0.08,0.47,0.15,0.71,0.23
		c0.45,0.15,0.91,0.3,1.37,0.44c0.24,0.08,0.49,0.15,0.74,0.22c0.45,0.14,0.9,0.27,1.36,0.4c0.26,0.07,0.53,0.14,0.8,0.22
		c0.44,0.12,0.88,0.24,1.32,0.36c0.29,0.08,0.59,0.14,0.89,0.22c0.42,0.1,0.83,0.21,1.25,0.3c0.3,0.07,0.6,0.13,0.91,0.2
		c0.42,0.09,0.83,0.19,1.25,0.27c0.32,0.07,0.65,0.12,0.98,0.19c0.4,0.08,0.8,0.16,1.2,0.23c0.33,0.06,0.67,0.11,1.01,0.17
		c0.4,0.07,0.79,0.14,1.19,0.2c0.4,0.06,0.79,0.11,1.19,0.17c0.34,0.05,0.68,0.1,1.02,0.14c0.47,0.06,0.94,0.11,1.41,0.16
		c0.27,0.03,0.54,0.07,0.81,0.09c0.44,0.04,0.88,0.08,1.32,0.12c0.31,0.03,0.62,0.06,0.93,0.08c0.39,0.03,0.77,0.05,1.16,0.07
		c0.37,0.02,0.73,0.05,1.1,0.07c0.36,0.02,0.73,0.03,1.09,0.04c0.39,0.02,0.79,0.03,1.18,0.04c0.76,0.02,1.52,0.03,2.29,0.03
		c1.02,0,2.03-0.02,3.04-0.05c1.21-0.04,2.41-0.11,3.6-0.19c0.34-0.03,0.69-0.05,1.03-0.08c0.94-0.08,1.87-0.18,2.8-0.28
		c0.59-0.07,1.18-0.14,1.76-0.22c10.75-1.48,20.89-4.89,30.06-9.87h46.45v0v-78.03C470.11,132.58,470.09,131.89,470.08,131.21z"/>
</g>
</svg>
